<?xml version="1.0" encoding="utf-8"?>
<!-- Generator: Adobe Illustrator 24.2.3, SVG Export Plug-In . SVG Version: 6.00 Build 0)  -->
<svg version="1.1" xmlns="http://www.w3.org/2000/svg" xmlns:xlink="http://www.w3.org/1999/xlink" x="0px" y="0px" width="750px"
	 height="1124px" viewBox="0 0 750 1124" enable-background="new 0 0 750 1124" xml:space="preserve">
<g id="恋爱">
	<g id="图层_1">
	</g>
	<g id="饮料">
	</g>
	<g id="情头">
	</g>
	<g id="吸管杯">
	</g>
	<g id="扫码">
	</g>
	<g id="价目表">
	</g>
	<g id="女生_1_">
	</g>
	<g id="男生">
	</g>
</g>
<g id="旅行_1_">
	<rect x="1.4" y="-0.3" fill="#FFE7B7" width="748.9" height="772"/>
	<polygon fill="#CF452A" points="1,927 749.4,744.5 749.4,770.5 749.4,852.1 -0.3,1116.2 	"/>
	<linearGradient id="SVGID_2_" gradientUnits="userSpaceOnUse" x1="63.5447" y1="285.0113" x2="183.8256" y2="285.0113">
		<stop  offset="0" style="stop-color:#FFFFFF"/>
		<stop  offset="0.2071" style="stop-color:#FFFBF5"/>
		<stop  offset="0.5633" style="stop-color:#FFF2D9"/>
		<stop  offset="0.5953" style="stop-color:#FFF1D6"/>
		<stop  offset="1" style="stop-color:#FFE7B7"/>
	</linearGradient>
	<path fill="url(#SVGID_2_)" d="M63.5,300.2c2.7-3.7,120.3-25.8,120.3-25.8s-49.2-11.1-77.9,1.2S63.5,300.2,63.5,300.2z"/>
	<path fill="#E5B633" d="M749.4,812.7l-750,311.3l750.4-1C749.8,1122.9,753.6,808.4,749.4,812.7z"/>
	<linearGradient id="SVGID_4_" gradientUnits="userSpaceOnUse" x1="553.4586" y1="189.8441" x2="553.4586" y2="50.1905">
		<stop  offset="0" style="stop-color:#FFA543"/>
		<stop  offset="0.3151" style="stop-color:#F19033"/>
		<stop  offset="0.9613" style="stop-color:#CE5B0C"/>
		<stop  offset="1" style="stop-color:#CC5809"/>
	</linearGradient>
	<circle fill="url(#SVGID_4_)" cx="553.5" cy="120" r="69.8"/>
	<linearGradient id="SVGID_6_" gradientUnits="userSpaceOnUse" x1="615.5894" y1="1026.6395" x2="615.5894" y2="1123.496">
		<stop  offset="0" style="stop-color:#875D0A"/>
		<stop  offset="0.6327" style="stop-color:#C59825"/>
		<stop  offset="1" style="stop-color:#E5B633"/>
	</linearGradient>
	<path fill="url(#SVGID_6_)" d="M587.2,1026.6c0,0-103.8,39.7-105.5,37.9l172.3,58.9h95.4v-18.8"/>
	<polygon fill="#FFD5CA" points="749.3,787.9 475.5,873 465.5,867 749.3,778.9 	"/>
	<polygon fill="#FFD5CA" points="749.3,758 478.9,843.2 468.9,837.2 748.9,749.6 	"/>
	<linearGradient id="SVGID_8_" gradientUnits="userSpaceOnUse" x1="274.9699" y1="330.6176" x2="411.2448" y2="330.6176">
		<stop  offset="0" style="stop-color:#FFFFFF"/>
		<stop  offset="0.2071" style="stop-color:#FFFBF5"/>
		<stop  offset="0.5633" style="stop-color:#FFF2D9"/>
		<stop  offset="0.5953" style="stop-color:#FFF1D6"/>
		<stop  offset="1" style="stop-color:#FFE7B7"/>
	</linearGradient>
	<polygon fill="url(#SVGID_8_)" points="286.2,344.1 411.2,308.7 275,352.6 	"/>
	<polygon fill="#FFD5CA" points="241.5,946.1 0.2,1025.5 0.2,1014.5 225.9,945.7 	"/>
	<polygon fill="#FFD5CA" points="217.8,909.5 -0.4,973.7 -0.4,963.6 202.3,908.9 	"/>
	<polygon fill="#FFD5CA" points="178.4,942.2 80.8,970.3 76.2,966 170,939.6 	"/>
	<path fill="#FFA543" d="M400.6,134.7c0,0,36.1-56.4,99.3,0s-2.3,20.3,27.1,29.3c29.3,9,24.8-63.2,58.7-33.9c0,0-2.3,11.3,18.1,20.3
		c20.3,9,4.5-38.4,38.4-13.5s12.6,30.3,44.2,34.8c31.6,4.5,65.3-14.6,63.1,51.8l-515.8-56.3C233.6,167.3,357.8,141.5,400.6,134.7z"
		/>
	<linearGradient id="SVGID_10_" gradientUnits="userSpaceOnUse" x1="16.2427" y1="402.4897" x2="114.2255" y2="402.4897">
		<stop  offset="0" style="stop-color:#FFFFFF"/>
		<stop  offset="0.2071" style="stop-color:#FFFBF5"/>
		<stop  offset="0.5633" style="stop-color:#FFF2D9"/>
		<stop  offset="0.5953" style="stop-color:#FFF1D6"/>
		<stop  offset="1" style="stop-color:#FFE7B7"/>
	</linearGradient>
	<path fill="url(#SVGID_10_)" d="M16.2,411.7c8.4-6.8,98-27,98-27l-97.6,35.6L16.2,411.7z"/>
	<polygon fill="#F0CD58" points="-0.1,948.1 749.4,744.5 0.2,746.8 0.2,824.8 	"/>
	<polygon fill="#E57653" points="748.9,812.1 -0.7,1057 -0.3,1122.5 81.1,1122.5 749.4,851.8 	"/>
	<path fill="#A33F24" d="M76.1,1124.6l673.3-273.7v-13.8l-749.7,279v8.4C-0.3,1124.5,61.3,1123.9,76.1,1124.6z"/>
	<linearGradient id="SVGID_12_" gradientUnits="userSpaceOnUse" x1="597.08" y1="163.8132" x2="597.08" y2="304.4633">
		<stop  offset="0" style="stop-color:#FFE7B7"/>
		<stop  offset="1" style="stop-color:#FFE7B7"/>
	</linearGradient>
	<path fill="url(#SVGID_12_)" d="M455.5,179.7c0,0,3.4-32.1,37.2-5.1s38.9-32.1,87.8,5.1s42.2,5.1,71,16.9c28.7,11.8,49-25.9,71-5.6
		c22,20.3,21,47.3,20.3,111.5c0,0-92.4,9-126.1-11.3c-33.8-20.3-90.1-55.7-127.3-74.3S445.3,188.2,455.5,179.7z"/>
	<linearGradient id="SVGID_13_" gradientUnits="userSpaceOnUse" x1="127.2168" y1="21.1835" x2="127.2168" y2="172.0319">
		<stop  offset="0" style="stop-color:#FFFFFF"/>
		<stop  offset="0.2071" style="stop-color:#FFFBF5"/>
		<stop  offset="0.5633" style="stop-color:#FFF2D9"/>
		<stop  offset="0.5953" style="stop-color:#FFF1D6"/>
		<stop  offset="1" style="stop-color:#FFE7B7"/>
	</linearGradient>
	<path fill="url(#SVGID_13_)" d="M2.4,36.2c0,0,21.8-18,51,13.5c0,0,5.3-36.3,54.1-27c41.7,7.9,29.2,40.4,36,42.3
		c15.8,4.5,39.6-17.9,68.9,24.9s91.1,67.9-39.6,79.2C42.1,180.4,1.6,155.6,1.6,155.6L2.4,36.2z"/>
	<linearGradient id="SVGID_14_" gradientUnits="userSpaceOnUse" x1="168.4392" y1="77.5956" x2="168.4392" y2="188.8144">
		<stop  offset="0" style="stop-color:#FFE7B7"/>
		<stop  offset="1" style="stop-color:#FFE7B7"/>
	</linearGradient>
	<path fill="url(#SVGID_14_)" d="M27.3,152.4c0,0,24.9-31.5,48.6-22.5c23.7,9,16.9-39.4,57.4-32.7s32.7,38.3,48.4,38.3
		s34.9-64.2,55.2-57.4s45,4.5,57.4,39.4c12.4,34.9,22.5,66.4,7.9,71C287.7,193,27.3,152.4,27.3,152.4z"/>
	<linearGradient id="SVGID_15_" gradientUnits="userSpaceOnUse" x1="430.3709" y1="99.745" x2="430.3709" y2="340.7601">
		<stop  offset="0" style="stop-color:#FFFFFF"/>
		<stop  offset="0.2071" style="stop-color:#FFFBF5"/>
		<stop  offset="0.5633" style="stop-color:#FFF2D9"/>
		<stop  offset="0.5953" style="stop-color:#FFF1D6"/>
		<stop  offset="1" style="stop-color:#FFE7B7"/>
	</linearGradient>
	<path fill="url(#SVGID_15_)" d="M289.9,100c40.5-2.9,38,17.9,78.8,60s31.3-52.8,81.1-17.1s57.3-28.3,96.9,54.3s35.4-51.3,69.8,8.6
		c34.5,59.9,136.7-16.6,132.9,80c-2.4,59.9-34.2-6.4-42.8,37.1c-7.7,38.9-132.6,3.3-141.7-3.4c-24.9-18.3-18.4-25.6-40.7-28
		c-16.4-1.8-42.9,4.3-58.8,0.5c-54.9-13-48.5,16.6-69.6,10.9c-15.2-4.1-20.7-20.5-65.3-28.6c-57.2-10.4-71,36.7-101.4,25.7
		c-44.7-16.2-44.1-56.4-90.1-60c-27.2-2.2-57.8-90,32.8-79.2C224,167,213.6,105.4,289.9,100z"/>
	<g>
		<g>
			<path fill="#343641" d="M612.7,711h-9.4v36.8c0,0,0,0,0,0s0,0,0,0v0h0c0,0.7,2.1,1.2,4.7,1.2s4.7-0.5,4.7-1.2h0.1V711z"/>
			<path fill="#FFE843" d="M612.7,711h-9.4v6.8c0,0,0,0,0,0s0,0,0,0v0h0c0,0.7,2.1,1.2,4.7,1.2s4.7-0.5,4.7-1.2h0.1V711z"/>
			<ellipse fill="#FFE843" cx="607.9" cy="711" rx="4.7" ry="1.2"/>
			<path fill="#FFE843" d="M612.6,724c0,0.7-2.1,1.2-4.7,1.2c-2.6,0-4.7-0.5-4.7-1.2v6.8c0,0,0,0,0,0s0,0,0,0v0h0
				c0,0.7,2.1,1.2,4.7,1.2s4.7-0.5,4.7-1.2h0.1L612.6,724L612.6,724z"/>
			<path fill="#FFE843" d="M612.6,736.7c0,0.7-2.1,1.2-4.7,1.2c-2.6,0-4.7-0.5-4.7-1.2v6.8c0,0,0,0,0,0s0,0,0,0v0h0
				c0,0.7,2.1,1.2,4.7,1.2s4.7-0.5,4.7-1.2h0.1L612.6,736.7L612.6,736.7z"/>
		</g>
		<path fill="#6D73B7" d="M653.9,744.8v-11.4h-53.6v11.4c0,0.1,0,0.2,0,0.4c0,3.8,12,7,26.8,7c14.8,0,26.8-3.1,26.8-7
			C653.9,745.1,653.9,745,653.9,744.8z"/>
		<ellipse fill="#3E3493" cx="627.1" cy="733.9" rx="26.8" ry="7"/>
		<path fill="#6D73B7" d="M637.1,732.8c0-0.1,0-0.2,0-0.3c0-0.1,0-0.2,0-0.3l-0.5-492.8l-17.5,1l0.5,492.8h0.8
			c0.9,1.4,4.2,2.4,8.3,2.4s7.4-1,8.3-2.4h0.2V732.8z"/>
		<g>
			<path fill="#343641" d="M621.6,732.7h-9.4v36.8c0,0,0,0,0,0s0,0,0,0v0h0c0,0.7,2.1,1.2,4.7,1.2s4.7-0.5,4.7-1.2h0.1V732.7z"/>
			<path fill="#FFE843" d="M621.6,732.7h-9.4v6.8c0,0,0,0,0,0s0,0,0,0v0h0c0,0.7,2.1,1.2,4.7,1.2s4.7-0.5,4.7-1.2h0.1V732.7z"/>
			<ellipse fill="#FFE843" cx="616.8" cy="732.7" rx="4.7" ry="1.2"/>
			<path fill="#FFE843" d="M621.5,745.7c0,0.7-2.1,1.2-4.7,1.2c-2.6,0-4.7-0.5-4.7-1.2v6.8c0,0,0,0,0,0s0,0,0,0v0h0
				c0,0.7,2.1,1.2,4.7,1.2s4.7-0.5,4.7-1.2h0.1L621.5,745.7L621.5,745.7z"/>
			<path fill="#FFE843" d="M621.5,758.4c0,0.7-2.1,1.2-4.7,1.2c-2.6,0-4.7-0.5-4.7-1.2v6.8c0,0,0,0,0,0s0,0,0,0v0h0
				c0,0.7,2.1,1.2,4.7,1.2s4.7-0.5,4.7-1.2h0.1L621.5,758.4L621.5,758.4z"/>
		</g>
		<g>
			<path fill="#343641" d="M667.7,717.5h-9.4v36.8c0,0,0,0,0,0s0,0,0,0v0h0c0,0.7,2.1,1.2,4.7,1.2s4.7-0.5,4.7-1.2h0.1V717.5z"/>
			<path fill="#FFE843" d="M667.7,717.5h-9.4v6.8c0,0,0,0,0,0s0,0,0,0v0h0c0,0.7,2.1,1.2,4.7,1.2s4.7-0.5,4.7-1.2h0.1V717.5z"/>
			<ellipse fill="#FFE843" cx="663" cy="717.5" rx="4.7" ry="1.2"/>
			<path fill="#FFE843" d="M667.7,730.6c0,0.7-2.1,1.2-4.7,1.2c-2.6,0-4.7-0.5-4.7-1.2v6.8c0,0,0,0,0,0s0,0,0,0v0h0
				c0,0.7,2.1,1.2,4.7,1.2s4.7-0.5,4.7-1.2h0.1L667.7,730.6L667.7,730.6z"/>
			<path fill="#FFE843" d="M667.7,743.3c0,0.7-2.1,1.2-4.7,1.2c-2.6,0-4.7-0.5-4.7-1.2v6.8c0,0,0,0,0,0s0,0,0,0v0h0
				c0,0.7,2.1,1.2,4.7,1.2s4.7-0.5,4.7-1.2h0.1L667.7,743.3L667.7,743.3z"/>
		</g>
	</g>
	<g id="飞机">
		<path fill="#FFF9EE" d="M514.9,717.4c0-4.6,0.6-13.5-6.8-31.4c-2.6-6.2-5.8-13-10.2-20.7c-2.8-4.9-6-10-9.8-15.6
			C451,595.3,382.4,592.5,353,590.2c-29.4-2.4-353.4-11.7-353.4-11.7l0.7,134.9c19.5,1.5,378,27.2,410.5,35
			C458.3,759.7,505.6,750.3,514.9,717.4z"/>
		<polygon fill="#343641" points="695.4,81.7 695.4,829.5 684.7,832.9 684.6,72.7 		"/>
		<path fill="#6C72B6" d="M414.6,772.1c83.5-0.1,100.8-54.4,100.2-54.1c-7,2.7-28.2,20.2-89.7,23.5c-33.4,1.8-404.3-26.6-423.8-28
			L1,745C1,745,347.5,772.1,414.6,772.1z"/>
		<path fill="#6C72B6" d="M467.5,673.5L502,673c-2.5-6.2-8.2-14.5-12.2-20.6l-33.2,0.9L467.5,673.5z"/>
		<path fill="#6C72B6" d="M459.4,673.2l-8.5-19c0,0-11.2-1.5-14.2,2.1c-3.2,3.9-14,11.1-7.2,14.5c2.4,1.2,3.4,3.1,8.5,3.2
			C447.5,674.2,459.4,673.2,459.4,673.2z"/>
		<polygon fill="#343641" points="452.9,0.1 449.3,895 440.3,897.4 440.8,0.4 		"/>
		<polygon fill="#343641" points="522.7,-0.4 749.2,93.5 749.2,106.5 490.4,-0.6 		"/>
		<path fill="#6C72B6" d="M197,760c0,0-69.3-27.3-92.9-89.8S7.6,660.1,1,744L197,760z"/>
		<polyline fill="#DEC7D3" points="53.8,720.8 129.3,717.6 0.5,706.3 1.3,719.6 53.8,720.8 53.8,720.8 		"/>
		<polygon fill="#6C72B6" points="129.3,717.6 122.8,726 61.3,729.4 53.8,720.8 		"/>
		<ellipse fill="#DFCAD5" cx="45.2" cy="761.6" rx="38.3" ry="45.4"/>
		<g>
			<circle fill="#343641" cx="181.9" cy="776.9" r="12.3"/>
			<circle fill="#3F3A3F" cx="181.9" cy="776.9" r="7.7"/>
			<path fill="#544B53" d="M155.1,785.7c0-0.7,29,2.3,29,2.3v4.2l-29-3.1V785.7z"/>
			<polygon fill="#544B53" points="185,773.9 185,777.9 155.1,788.2 155.1,784.8 			"/>
			<circle fill="#343641" cx="149.6" cy="784.8" r="12.3"/>
			<path fill="#544B53" d="M181.6,776.4c0-0.7,29,2.3,29,2.3v4.2l-29-3.1V776.4z"/>
			<polygon fill="#343641" points="182.1,776.1 186.2,774.8 213.5,777.3 210.4,778.7 			"/>
			<polygon fill="#343641" points="155.9,784.4 186.9,773.9 178.6,774.5 145.1,784.1 			"/>
			<g>
				<rect x="185" y="758.3" fill="#544B53" width="4.5" height="21.1"/>
				<path fill="#3F3A3F" d="M190.7,758.2l0.1,21.6l-1.9,0.1v-21.5C188.9,758.3,190.9,758.2,190.7,758.2z"/>
			</g>
			<circle fill="#343641" cx="218.8" cy="780.4" r="12.3"/>
			<polygon fill="#343641" points="155.7,785.4 159.7,784.1 180.7,786 177.6,787.4 			"/>
			<circle fill="#3F3A3F" cx="218.8" cy="780.4" r="7.7"/>
			<circle fill="#544B53" cx="149.6" cy="784.8" r="6.9"/>
			<polygon fill="#544B53" points="220.9,778.7 220.9,782.8 186.2,793.8 186.2,790.4 			"/>
			<circle fill="#343641" cx="186.5" cy="786.5" r="12.3"/>
			<polygon fill="#343641" points="194.4,787.8 221.2,779.1 213.8,778.8 183.7,788.4 			"/>
			<circle fill="#544B53" cx="186.5" cy="786.5" r="6.9"/>
		</g>
		<polygon fill="#DEC7D3" points="48.3,717.3 -0.7,713.6 -0.7,799.9 48,813.4 		"/>
		<ellipse fill="#544B53" cx="44.5" cy="760.9" rx="32.7" ry="39.5"/>
		<path fill="#F1B24E" d="M127.7,582.1c0,0-8.5,60.5,11.5,70.1s-1.5,18.4,22.9,28.1c24.5,9.7-1.5,25.5,33.8,49
			c35.3,23.5,64.2,37.2,64.2,37.2s-27-27-40.5-52.4c0,0,55.5,49.1,111.5,57.4c0,0-64.6-25.1-72.6-59.1c0,0,0.9,11.6,65.9,20.3
			c0,0-31.7-17.5-42.3-38.1c0,0,32.5,17.6,77.8,7.7l-30.4-13c0,0,47.2,3.6,70.4-22.7c0,0-15.8,1.8-31.7,5.8c0,0,25.2-15,30.2-32.9
			c1.2-0.6-65.3,37.1-111.3,17.2c-44.5-19.3-65.5-47.7-71.5-72.6L127.7,582.1z"/>
		<polygon fill="#6C72B6" points="329.2,659.9 328.8,674.7 341,675.2 341.5,660.1 		"/>
		<polygon fill="#6C72B6" points="308.5,658.6 308,673.4 320.2,673.9 320.7,658.9 		"/>
		<polygon fill="#6C72B6" points="288.5,657.4 288,672.2 300.2,672.7 300.7,657.7 		"/>
		<polygon fill="#6C72B6" points="268,656.2 267.6,671 279.7,671.5 280.2,656.5 		"/>
		<polygon fill="#6C72B6" points="246.1,655.4 245.7,670.2 257.8,670.7 258.3,655.7 		"/>
		<polygon fill="#6C72B6" points="225.5,653.9 225.1,668.8 237.2,669.3 237.8,654.2 		"/>
		<polygon fill="#6C72B6" points="205.2,653.7 204.8,668.5 217,669 217.5,654 		"/>
		<path fill="#CB4125" d="M88.5,581.2c0,0-4.1,16.8-89.1,15.3l0.1-18L88.5,581.2z"/>
	</g>
	<linearGradient id="SVGID_17_" gradientUnits="userSpaceOnUse" x1="261.7396" y1="1070.7087" x2="261.7396" y2="1122.5859">
		<stop  offset="0" style="stop-color:#A37204"/>
		<stop  offset="0.2358" style="stop-color:#AD7C0B"/>
		<stop  offset="0.6412" style="stop-color:#C8981E"/>
		<stop  offset="1" style="stop-color:#E5B633"/>
	</linearGradient>
	<polygon fill="url(#SVGID_17_)" points="377.9,1095.6 319.8,1122.6 145.5,1120.5 245.1,1070.7 	"/>
	<g>
		<g>
			<path fill="#343641" d="M20.5,810.1h-9.4v36.8c0,0,0,0,0,0s0,0,0,0v0h0c0,0.7,2.1,1.2,4.7,1.2s4.7-0.5,4.7-1.2h0.1V810.1z"/>
			<path fill="#FFE843" d="M20.5,810.1h-9.4v6.8c0,0,0,0,0,0s0,0,0,0v0h0c0,0.7,2.1,1.2,4.7,1.2s4.7-0.5,4.7-1.2h0.1V810.1z"/>
			<ellipse fill="#FFE843" cx="15.7" cy="810.1" rx="4.7" ry="1.2"/>
			<path fill="#FFE843" d="M20.4,823.1c0,0.7-2.1,1.2-4.7,1.2c-2.6,0-4.7-0.5-4.7-1.2v6.8c0,0,0,0,0,0s0,0,0,0v0h0
				c0,0.7,2.1,1.2,4.7,1.2s4.7-0.5,4.7-1.2h0.1L20.4,823.1L20.4,823.1z"/>
			<path fill="#FFE843" d="M20.4,835.8c0,0.7-2.1,1.2-4.7,1.2c-2.6,0-4.7-0.5-4.7-1.2v6.8c0,0,0,0,0,0s0,0,0,0v0h0
				c0,0.7,2.1,1.2,4.7,1.2s4.7-0.5,4.7-1.2h0.1L20.4,835.8L20.4,835.8z"/>
		</g>
		<path fill="#6D73B7" d="M61.7,843.9v-11.4H8.1v11.4c0,0.1,0,0.2,0,0.4c0,3.8,12,7,26.8,7c14.8,0,26.8-3.1,26.8-7
			C61.7,844.2,61.7,844.1,61.7,843.9z"/>
		<ellipse fill="#3E3493" cx="34.9" cy="833" rx="26.8" ry="7"/>
		<path fill="#6D73B7" d="M44.9,831.9c0-0.1,0-0.2,0-0.3c0-0.1,0-0.2,0-0.3V158.4l-17.5,1v672.9h0.8c0.9,1.4,4.2,2.4,8.3,2.4
			s7.4-1,8.3-2.4h0.2V831.9z"/>
		<g>
			<path fill="#343641" d="M29.4,831.8h-9.4v36.8c0,0,0,0,0,0s0,0,0,0v0h0c0,0.7,2.1,1.2,4.7,1.2s4.7-0.5,4.7-1.2h0.1V831.8z"/>
			<path fill="#FFE843" d="M29.4,831.8h-9.4v6.8c0,0,0,0,0,0s0,0,0,0v0h0c0,0.7,2.1,1.2,4.7,1.2s4.7-0.5,4.7-1.2h0.1V831.8z"/>
			<ellipse fill="#FFE843" cx="24.6" cy="831.8" rx="4.7" ry="1.2"/>
			<path fill="#FFE843" d="M29.3,844.8c0,0.7-2.1,1.2-4.7,1.2c-2.6,0-4.7-0.5-4.7-1.2v6.8c0,0,0,0,0,0s0,0,0,0v0h0
				c0,0.7,2.1,1.2,4.7,1.2s4.7-0.5,4.7-1.2h0.1L29.3,844.8L29.3,844.8z"/>
			<path fill="#FFE843" d="M29.3,857.5c0,0.7-2.1,1.2-4.7,1.2c-2.6,0-4.7-0.5-4.7-1.2v6.8c0,0,0,0,0,0s0,0,0,0v0h0
				c0,0.7,2.1,1.2,4.7,1.2s4.7-0.5,4.7-1.2h0.1L29.3,857.5L29.3,857.5z"/>
		</g>
		<g>
			<path fill="#343641" d="M75.6,816.6h-9.4v36.8c0,0,0,0,0,0s0,0,0,0v0h0c0,0.7,2.1,1.2,4.7,1.2s4.7-0.5,4.7-1.2h0.1V816.6z"/>
			<path fill="#FFE843" d="M75.6,816.6h-9.4v6.8c0,0,0,0,0,0s0,0,0,0v0h0c0,0.7,2.1,1.2,4.7,1.2s4.7-0.5,4.7-1.2h0.1V816.6z"/>
			<ellipse fill="#FFE843" cx="70.8" cy="816.6" rx="4.7" ry="1.2"/>
			<path fill="#FFE843" d="M75.5,829.7c0,0.7-2.1,1.2-4.7,1.2c-2.6,0-4.7-0.5-4.7-1.2v6.8c0,0,0,0,0,0s0,0,0,0v0h0
				c0,0.7,2.1,1.2,4.7,1.2s4.7-0.5,4.7-1.2h0.1L75.5,829.7L75.5,829.7z"/>
			<path fill="#FFE843" d="M75.5,842.3c0,0.7-2.1,1.2-4.7,1.2c-2.6,0-4.7-0.5-4.7-1.2v6.8c0,0,0,0,0,0s0,0,0,0v0h0
				c0,0.7,2.1,1.2,4.7,1.2s4.7-0.5,4.7-1.2h0.1L75.5,842.3L75.5,842.3z"/>
		</g>
	</g>
	<path fill="#E57653" d="M0.8,150.7l749,104.2v15.6l-749-90.4C0.8,180.1,1.6,161.9,0.8,150.7z"/>
	<polygon fill="#343641" points="0.6,204.1 749.8,284.1 749.8,270.6 0.8,180.1 	"/>
	<g>
		<polygon fill="#B77C1D" points="211.4,844.2 211.4,850.3 161.3,862 161.2,855.3 		"/>
		<g>
			<polygon fill="#B77C1D" points="186,839.6 191.1,838 184.5,837.4 178.9,838.8 			"/>
			<polygon fill="#D3972D" points="178.9,838.8 178.9,847.6 186,848.3 186,839.6 			"/>
		</g>
		<polygon fill="#B77C1D" points="247.4,846.9 247.4,852.9 197,865.8 197,859.3 		"/>
		<polygon fill="#6D73B7" points="145,850 196.9,855.7 247.4,844.4 190.9,837.8 		"/>
		<polygon fill="#FBDFA0" points="145,850 145,853.6 197.2,859.2 197.2,855.7 		"/>
		<polygon fill="#ED6F4E" points="145,853.6 145,860.3 161.3,862 161.2,855.4 		"/>
		<g>
			<polygon fill="#B77C1D" points="145,851.6 150.1,850 143.5,849.4 137.9,850.8 			"/>
			<polygon fill="#D3972D" points="137.9,850.8 137.9,859.6 145,860.3 145,851.6 			"/>
		</g>
		<polygon fill="#ED6F4E" points="180.7,857.5 180.7,864 196.9,865.8 196.9,859.2 		"/>
		<polygon fill="#FBDFA0" points="247.4,844.4 247.4,847.5 197.2,859.2 197.2,855.7 		"/>
	</g>
	<polygon fill="#E5B633" points="575.2,1046.5 573,1051 685.6,1123.5 705.5,1122.7 	"/>
	<g>
		<path fill="#B77C1D" d="M128.2,866.1v4c0,0.5-0.3,0.9-0.8,1l-48.1,11.3c-0.6,0.1-1.2-0.3-1.2-1l0-4.6c0-0.5,0.3-0.9,0.8-1
			l48.2-10.6C127.6,865,128.2,865.5,128.2,866.1z"/>
		<g>
			<path fill="#B77C1D" d="M103,860.1L103,860.1c1.1-0.3,0.9-1.9-0.2-2l-1.3-0.1c-0.1,0-0.2,0-0.4,0h0c-1.1,0.3-1,1.9,0.1,2l1.3,0.1
				C102.7,860.2,102.8,860.2,103,860.1z"/>
			<path fill="#D3972D" d="M95.7,860.6v6.7c0,0.5,0.4,1,0.9,1l5.1,0.5c0.6,0.1,1.1-0.4,1.1-1v-6.7c0-0.5-0.4-1-0.9-1l-5.1-0.5
				C96.2,859.5,95.7,860,95.7,860.6z"/>
		</g>
		<path fill="#B77C1D" d="M164.1,868.8v4c0,0.5-0.3,0.9-0.8,1L115,886.1c-0.6,0.2-1.3-0.3-1.3-1v-4.4c0-0.5,0.3-0.9,0.8-1l48.4-11.9
			C163.5,867.7,164.1,868.1,164.1,868.8z"/>
		<path fill="#6D73B7" d="M67.2,871.3l46.3,5c0.1,0,0.2,0,0.3,0l44.5-9.9c1.1-0.2,1-1.9-0.1-2l-50.4-5.9c-0.1,0-0.3,0-0.4,0
			L67,869.3C66,869.6,66.1,871.1,67.2,871.3z"/>
		<path fill="#FBDFA0" d="M61.8,871.8v1.5c0,0.5,0.4,1,0.9,1l50.1,5.4c0.6,0.1,1.1-0.4,1.1-1v-1.5c0-0.5-0.4-1-0.9-1l-50.1-5.4
			C62.3,870.7,61.8,871.2,61.8,871.8z"/>
		<path fill="#ED6F4E" d="M61.8,875.4l0,4.6c0,0.5,0.4,1,0.9,1l14.2,1.5c0.6,0.1,1.1-0.4,1.1-1l0-4.6c0-0.5-0.4-1-0.9-1l-14.2-1.5
			C62.3,874.3,61.8,874.8,61.8,875.4z"/>
		<g>
			<path fill="#B77C1D" d="M62,872.1L62,872.1c1.1-0.3,0.9-1.9-0.2-2l-1.3-0.1c-0.1,0-0.2,0-0.4,0h0c-1.1,0.3-1,1.9,0.1,2l1.3,0.1
				C61.7,872.2,61.8,872.2,62,872.1z"/>
			<path fill="#D3972D" d="M54.7,872.6v6.7c0,0.5,0.4,1,0.9,1l5.1,0.5c0.6,0.1,1.1-0.4,1.1-1v-6.7c0-0.5-0.4-1-0.9-1l-5.1-0.5
				C55.2,871.5,54.7,872,54.7,872.6z"/>
		</g>
		<path fill="#ED6F4E" d="M97.5,879.2v4.5c0,0.5,0.4,1,0.9,1l14.2,1.5c0.6,0.1,1.1-0.4,1.1-1v-4.5c0-0.5-0.4-1-0.9-1l-14.2-1.5
			C98,878.2,97.5,878.6,97.5,879.2z"/>
		<path fill="#FBDFA0" d="M164.1,866.3v1c0,0.5-0.3,0.9-0.8,1l-48.1,11.3c-0.6,0.1-1.2-0.3-1.2-1v-1.5c0-0.5,0.3-0.9,0.8-1
			l48.1-10.8C163.5,865.2,164.1,865.7,164.1,866.3z"/>
	</g>
	<linearGradient id="SVGID_19_" gradientUnits="userSpaceOnUse" x1="619.7853" y1="465.7726" x2="619.7853" y2="270.9333">
		<stop  offset="0" style="stop-color:#FFFFFF;stop-opacity:0.4"/>
		<stop  offset="0.2839" style="stop-color:#FFFEFC;stop-opacity:0.3148"/>
		<stop  offset="0.5015" style="stop-color:#FFFBF2;stop-opacity:0.2495"/>
		<stop  offset="0.6972" style="stop-color:#FFF5E2;stop-opacity:0.1909"/>
		<stop  offset="0.8787" style="stop-color:#FFEECB;stop-opacity:0.1364"/>
		<stop  offset="1" style="stop-color:#FFE7B7;stop-opacity:0.1"/>
	</linearGradient>
	<polygon fill="url(#SVGID_19_)" points="627.8,270.9 573.7,460.7 609.2,465.8 665.8,274.3 	"/>
	<g id="人">
		<path fill="#FFC2B8" d="M562.4,403.6c-14.4-12.1-22.2-30.3-35.4-31.1c0,0-20.4,2.8-26.8,14.8c1.2-0.5,2.4-0.8,3.7-1.1
			c0,0-11.4,8.6-10.3,19.7c0.8,7.5-2.7,10.4-3.8,18c-1,6.7,5,25.2,12.2,33.2c1.6,1.7,6.4,2.4,8.8,2.7c11.1,1.1,10.7,3.6,13,9.9
			c3,8.4,3.8,11.8,3.8,11.8l30.6-10.2l10.1-32.7C568.2,438.6,576.8,415.7,562.4,403.6z"/>
		<g>
			<path fill="none" stroke="#303244" stroke-width="2" stroke-linecap="round" stroke-linejoin="round" stroke-miterlimit="10" d="
				M496.4,402.8c0,0,5-1.2,8.9,3.3"/>
			<path fill="none" stroke="#303244" stroke-width="2" stroke-linecap="round" stroke-linejoin="round" stroke-miterlimit="10" d="
				M516.2,406.5c0,0,6.9-5.2,16.8,2.9"/>
		</g>
		<path fill="#FFB32C" d="M534.7,473.5c0,0-17.1,13.5-19.9,17.2c-5.9,7.6-23.8,46.7-26.4,61.2s16.6,22,22.1,51
			c6.2,32.6,6.1,47.2,7.4,46.2c0,0,67.3-8,87.6-14.8s28.1-123.4-14.1-150.4C549.3,456.8,549.3,462.6,534.7,473.5z"/>
		<path fill="#781EFF" d="M622.1,701.9c-1.7-3.9-3.4-25-3.4-25l8.6-0.8c-4.3-16.6-11.5-34-11.5-34c-30.8-2-93.5,4.8-93.5,4.8
			c1,19.3-10.2,69.1-13.5,83.5c-3.3,14.4-16.4,120.5-12.4,159.8c3.9,39.3,25.9,92,25.9,92c3.9-2.6,31.5-3.9,31.5-3.9
			c-0.7-3.9,0.7-16.1,0.7-38.3c0-16.5-5.8-43.9-7.7-51.7c-2-7.9,2-22.3,2-22.3c0.7,16.4,18.1,26.3,19,40.4
			c1.2,18.6,6.1,66.7,6.1,66.7c3.3,3.9,34.1,0.7,34.1,0.7c16-28.4-0.2-109.8-0.8-124.2c-0.7-14.4,3.8-93.1,18.3-115.7
			c4.2-6.6,5.7-15.5,5.6-25.3C628.7,707.6,623.4,704.9,622.1,701.9z"/>
		<g>
			<path fill="#D34722" d="M529.3,575.5c0,0,16.8,27.5,20.9,33.3c4.1,5.7,16,21.7,16,21.7l-0.8,7c0,0-15.6-22.6-18-27.9
				c-2.5-5.3-19-26.6-22.7-31.1L529.3,575.5z"/>
			<path fill="#D34722" d="M516.5,489.9c0,0,4.2-5.3,9-9c4.5-3.5,39.9-5.2,57.9,26.8l-9.5,9.8c0,0-27-23.9-40.5-28.4
				C533.4,489,526.9,486.2,516.5,489.9z"/>
			<path fill="#D34722" d="M576,519.9c0,0,1.2,29,0.4,41.7c-1.8,27-8.2,33.4-9.8,43.2c-2,11.5-3.3,18-3.3,18s-2.9,23,5.7,34.4
				s14.8,20.9,27.5,18.9s18.5-4.1,18.5-4.1s17.6,3.3,22.1,0s16.4-13.5,19.3-20.1s1.4-8.1,3.5-12.6c3.4-7.1,2.5-15.1,0-18
				c0,0,0.8-4.9,0.4-10.9c-0.3-4-2.3-8.5-5.2-11s-9.4-11.5-9.4-11.5s-5.7-36.1-11.9-41.8s-16.8-17.2-18.9-18s-18.5-20.1-31.6-20.5
				l-10.3,8.2C573.2,515.8,575.2,518.3,576,519.9z"/>
		</g>
		<path fill="#0A192C" d="M521.8,384.8c0,0-9.4-10.1-20.6-1.5c0,0,8.9-20,35.3-16.5c33.8,4.5,37.9,37,40.1,46.3
			c3,12.7,6.5,27.6,10.8,40c4.4,12.9,23.1,40.5,28.5,51.3c5.4,10.8,16.9,28.6,19.4,47.7c0,0-8.6-10.3-13.3-17.6c0,0,0.5,11-2.2,12.6
			c0,0,1.6-12.3-2.3-12.7c0,0-0.7,6.3-5.3,9c0,0,3.7-12.4-1.4-18.2c0,0,3.6,15.1-6.2,24.1c0,0,4.3-13.7,1.6-18.3
			c0,0-1.5,7.3-7.3-5.4c0,0-2.5,15-5.8,2c0,0-2,28.6-9.3,33.2c0,0,6.8-13.8-1.7-36.9c-4.3-11.7-2.3-11.5-14.1-24.8
			c-11.1-12.4-14.8-23-19.7-41.1c-3.4-12.4-3-13.3,1.1-27.6c2.1-7.1,2.1-23.5-9.2-27.2C532.9,400.8,529.5,397.1,521.8,384.8z"/>
		
			<ellipse transform="matrix(0.1005 -0.9949 0.9949 0.1005 36.3893 869.2365)" fill="#303244" cx="498.9" cy="414.5" rx="5.5" ry="3.6"/>
		<ellipse transform="matrix(0.1182 -0.993 0.993 0.1182 45.2336 886.774)" fill="#303244" cx="521.9" cy="417.9" rx="6.5" ry="5"/>
		
			<ellipse transform="matrix(0.2907 -0.9568 0.9568 0.2907 -31.7023 799.4879)" fill="#F2F3FC" cx="523.4" cy="421.1" rx="3.1" ry="2.2"/>
		<path fill="#0A192C" d="M522.9,382.2c0,0-5.3,11.6,15.8,34.2c0,0-11.3-21.8-7.5-24c0,0-2.3,10.5,8.3,17.6c0,0-5.6-12.8-1.5-14.3
			C542.1,394.2,529.3,375.1,522.9,382.2z"/>
		<path fill="#0A192C" d="M541.1,400.8c0,0,11,19.6,2,36.2c0,0,7.2-8.9,6.1-22.7C548,400.9,544.7,402,541.1,400.8z"/>
		<path fill="#0A192C" d="M535.3,396.5c0,0,7.1,12.8,6.8,19.5c0,0,4.1-14.6-0.8-19.9C536.5,390.8,535.3,396.5,535.3,396.5z"/>
		<path fill="#343641" d="M557.9,443.7c0,0-2.7,22.8,17.3,38.7C575.2,482.4,560.4,463,557.9,443.7z"/>
		<path fill="#343641" d="M564.1,406.9c1,1,7.8,12,8.4,26.3c0.6,12.4,3.9,19.1,7.9,28.4c0,0-5.9-20-5.6-27.6
			c0.3-6.9-7.3-26.2-10.3-27.6C560.9,404.8,561.2,404.1,564.1,406.9z"/>
		<path fill="#343641" d="M599.2,509.6c0,0,7.5,10.1,7,21.4C607.1,529.6,602.6,521.4,599.2,509.6z"/>
		<path fill="#343641" d="M602.9,501.1c-1.4-0.9,15.4,3,19.1,33.3C622,534.4,614.2,508.4,602.9,501.1z"/>
		<path fill="#343641" d="M525.8,376.7c0,0-12.9,0-18.1,9.9C507.6,386.5,518.7,378.9,525.8,376.7z"/>
		<path fill="#343641" d="M536.5,385.4c0,0,9.9,7,11,19.7C547.4,405.1,541.8,391,536.5,385.4z"/>
		<path fill="#4529B3" d="M548.3,672.6l39.8-1c0,0,1.9,16.8-0.3,29.9c-2.3,13.5-18.4,20-18.4,20s-25.6-12.6-22.7-24.1
			C549.4,686.1,548.3,672.6,548.3,672.6z"/>
		<path fill="#F29E91" d="M546.6,436.1c0,0-9.3,15.5-26.7,25.3c0,0,1.8,2.2,3.1,6.2C524.4,472.1,546,449.9,546.6,436.1z"/>
		<polygon fill="#BC7A0F" points="519.6,602.9 543.2,628.1 562.7,639 		"/>
		<path fill="#BC7A0F" d="M524.1,632.2c1.9,1.1,17.3,6.4,17.3,6.4l8.3-1.5L524.1,632.2z"/>
		<path fill="#A53119" d="M584.6,598c0,0-5.2,22.1-16.1,29.5c-13.2,9,1.7,42.2,15.2,46.7c13.5,4.5,14.2,1.6,17,1.6
			c7.4,0,13.1-2.2,14.8-3.4s-7.5-3.9-8.1-6.1c-0.6-2.3,11.8-17.5,10.1-31c-1.7-13.5-3.4-19.7-3.4-19.7s-9.6,11.3-18,3.4
			S584.6,598,584.6,598z"/>
		<path fill="#A53119" d="M660.3,610.6c-0.8-7.2-3.9-10.6-3.9-10.6l-10.3-10.5l-6.5,9.8c-1.5,1.5-3.7,2.3-5.9,2.1
			c-2.7-0.3-6.4-0.4-9.1,0.5c-5.5,1.8-9,4.1-9,4.1s6,14.6,16.5,19.9l24.2-5.6L660.3,610.6z"/>
		<path fill="#A53119" d="M639.4,628.2l-7.2-2.3C634.4,626.9,636.9,627.7,639.4,628.2z"/>
		<path fill="#872212" d="M660.3,617.4c0.2-2.6,0.2-4.8,0-6.8l-3.9,9.7l-24.2,5.6l7.2,2.3C648.9,629.8,659.5,626.7,660.3,617.4z"/>
		<path fill="#A53119" d="M586.6,587.1l-0.6,10.6l10.7,6.8l1.1,3.9l-2.8,5.1l5.6,5.1l3-8.8c0,0,9.7,4.3,12.2,4.3
			c2.8,0,1.7-6.2,1.7-6.2l-11.8-5.7L586.6,587.1z"/>
		<path fill="#A53119" d="M620.4,618c0,0,12.4,10.1,13.5,11.8c1.1,1.7,9.6,4.5,9.6,14.6L620.4,618z"/>
		<polygon fill="#A53119" points="617.5,639.9 620.2,658.4 615.3,647.8 		"/>
		<polygon fill="#A53119" points="632.8,642.2 634.3,649.7 641,657.8 		"/>
		<path fill="#A53119" d="M611.9,654.6l7.3,8.4L611.9,654.6z"/>
		<polygon fill="#A53119" points="610.2,659.6 616.2,666.5 611.9,654.6 		"/>
		<path fill="#A53119" d="M614.7,590.4c0,0,3.4-5.1,10.1,10.7L614.7,590.4z"/>
		<path fill="#A53119" d="M576.6,564.7c0.9-6.5,3.3,15.9,3.3,15.9l-12.3,19.8C567.6,600.3,575.5,572.5,576.6,564.7z"/>
		<path fill="#0A192C" d="M557.9,443.7c0,0-13,19.9,3.3,54.8c0,0-18-23.7-16.3-34.9c1.7-11.3,5.1-20.3,6.2-22
			S557.5,441.8,557.9,443.7z"/>
		<path fill="#0A192C" d="M553.7,476.1c0,0,19.3,34.3,12,68.6C565.7,544.8,561.6,494.1,553.7,476.1z"/>
		<path fill="#0A192C" d="M553.7,476.1c0,0,9.8,32.6,6.4,46.7C560.1,522.8,554.1,480.7,553.7,476.1z"/>
		<path fill="#0A192C" d="M557.3,482.8c0,0,0.6,31.5,24.2,38.9L557.3,482.8z"/>
		<path fill="#343641" d="M566.9,485.1c-0.8,1.7,27.6,16.9,29.3,38.9C596.2,523.9,573.1,491.8,566.9,485.1z"/>
		<path fill="#4529B3" d="M591.1,737.3c3.4-1.1,7.3-6.2-1.7-1.7c-17.7,8.8-13.8,11.8-15.5,17.7c-1.7,5.9,0,18.6-4.2,22.8
			s-5.9,10.1-5.9,10.1l-14.4,76l23.7-83.6c0,0,1.1-32.4,11.3-37.4C594.5,736.2,584.4,739.6,591.1,737.3z"/>
		<path fill="#4529B3" d="M573.9,753.4c0,0,11.8,0.8,22.8-3.4C596.7,750,583.2,741.6,573.9,753.4z"/>
		<polygon fill="#4529B3" points="626.1,733 619.5,739.9 596.6,742.8 		"/>
		<path fill="#4529B3" d="M606.8,841c0,0,0,33.2-22.5,42.8C584.3,883.8,604.6,860.1,606.8,841z"/>
		<polygon fill="#4529B3" points="557.3,883.8 571.4,891.1 583.8,890.5 		"/>
		<polygon fill="#4529B3" points="541.5,779 558.4,783.5 552.2,777.3 		"/>
		<path fill="#4529B3" d="M514.5,778.4c0,0,32.1,5.6,40,16.9c0,0-11.8-3.4-29.3-10.1C507.7,778.4,514.5,778.4,514.5,778.4z"/>
		<polygon fill="#4529B3" points="499.9,896.1 513.9,886 526.3,888.3 		"/>
		<polygon fill="#4529B3" points="532.5,892.8 542.7,893.9 546,897.8 		"/>
		<polygon fill="#4529B3" points="532.5,892.8 516.8,895.6 504.4,902.9 524.1,898.4 		"/>
		<polygon fill="#872212" points="638.9,603.3 652.5,614.6 648.5,604.4 645.1,595.4 644.6,603.9 		"/>
		<polygon fill="#872212" points="582.1,610.1 583.2,629.2 580.9,652.3 		"/>
		<path fill="#872212" d="M586,619.7c0.6,1.7,6.2,13,6.2,13l1.7,25.3L586,619.7z"/>
		<path fill="#872212" d="M600.1,626.4c0,0,11.3,18,15.2,21.4C615.3,647.8,609.1,630.9,600.1,626.4z"/>
		<polygon fill="#872212" points="610.2,671.5 595,665.8 600.7,672 		"/>
		<polygon fill="#D34722" points="547.3,609.6 545.5,619.7 539.8,627.5 548.8,630.3 550.5,611.8 		"/>
		<path fill="#4529B3" d="M630.5,716.5l-2.3,8.4c0,0-18,5.6-24.8,6.2C603.5,731.1,626,724.4,630.5,716.5z"/>
		<polygon fill="#4529B3" points="575.9,879.2 585.5,880.4 592.2,885.4 		"/>
		<polygon fill="#4529B3" points="546.6,871.9 536.5,884.3 530.8,886 541,886 		"/>
		
			<ellipse transform="matrix(0.1005 -0.9949 0.9949 0.1005 34.9356 872.3319)" fill="#F2F3FC" cx="499.9" cy="416.8" rx="2.6" ry="1.7"/>
		<path fill="#A53119" d="M599,552.1l-16.3-37.7c0,0,5.1,34.4,6.2,41.7s8.4,29.8,8.4,29.8L599,552.1z"/>
		<polygon fill="#BC7A0F" points="541,518 530,569.3 528.2,576.3 535.3,569.5 537.6,557.1 		"/>
		<path fill="#A53119" d="M632.8,545.3c0,0-11,0-13.5,4.2s-2.3,11.3-3.9,15.5s-2.4,31.7,0.6,40.5l-4.6,1.3c0,0,0.9-16.7,0-20.8
			c-0.8-4.2,0-19.3,1.3-23c1.3-3.8,2.6-6.2,2.2-9.2s0.3-7.6,5.7-9.3c5.4-1.7,7.1-4.2,9.6-2.1C632.6,544.5,632.8,545.3,632.8,545.3z"
			/>
		<path fill="#A53119" d="M623.2,530.1c0,0-5.9-1.8-11.7,1.5s-8.4,2.4-9.2,4.3c-0.2,0.6-0.9,2.2-1.7,4.5c-1.9,5.4-4.5,14.2-4.2,18.2
			c0.4,5.7-2.9,17.5-0.4,23.1c2.5,5.7,1.7,8.5,1.7,8.5l3,8.7l-3.4-20.8c0,0,0.4-10,0.8-13.8l3.6-20.4c0.2-1.2,0.7-2.3,1.4-3.2
			C604.9,538.4,613.7,531.1,623.2,530.1z"/>
		<path fill="#FFB9A9" d="M548.1,413.9c0,0,11.2-5.4,9.2,6.4c-0.7,4.2-2.8,3.6-5.1,9c-2.5,6.2-6.2,3.1-5.2-0.7
			C547.7,426,548.8,418.3,548.1,413.9z"/>
		<path fill="#F29E91" d="M609.7,972.2c0,0-7,10.1-6.2,25.3s4.2,27,4.2,27s-34.6-6.8-36.3-13.5c-1.7-6.8,8.4-12.4,9.3-19.1
			s-3.4-27.3-3.4-27.3L609.7,972.2z"/>
		<path fill="none" d="M614,1033c0,0.2,0,0.4,0.1,0.6C614,1033.2,614,1033,614,1033z"/>
		<path fill="#3F322D" d="M546.3,1024.3c4.5-0.8,18.3,8.7,26.7,6.8s14.9,6.8,28.7,8.4c11.5,1.4,12.3-4,12.3-5.9c0-0.2,0-0.4-0.1-0.6
			c-0.4-4.3-5.2-17.2-6.3-27c-0.7-6.1,0.3-18.5-3.4-18.9c-0.7-0.1-0.6,3.9-4.5,4.5c-2.2,0.3-6.8,0.3-9.6-1.7c-4.3-3-6.1-4.7-8.7-6.3
			c-2.6-1.6-0.2-6.4-2.3-4.1c-0.4,0.5-2.8,10.8-5,14.4c-2.2,3.6-10.8,9.8-16.8,11.6c-6,1.8-20.8,2.8-29.8,3.4s-8.2,4.4-7.2,13
			c0.6,5.3,13.4,8.8,24.1,11.1C543.8,1029.8,543.3,1024.8,546.3,1024.3z"/>
		<path fill="#63473F" d="M565.6,1037.9c0,0,1.6,2,3,2.4c1.4,0.4,5.6-1.4,9.4-1c3.8,0.4,3.4,3.6,3.6,4.6c0.2,1,2.8,2.4,2.8,2.4v-3.6
			l1.8,1c0,0-0.4,3.6-0.2,4.2s2.6,1.2,2.6,1.2l0.2-4.2l1.8,0.4v4.6c0.6,1.4,5.4,1.2,5.4,1.2l0.2-2.8l3.2-0.2v3.6
			c3.6,2,12.6-1,14.2-3c1.6-1.9,0.9-8.9,0.4-15.1c0,1.9-0.8,7.3-12.3,5.9c-13.8-1.7-20.3-10.4-28.7-8.4s-22.2-7.6-26.7-6.8
			c-3,0.6-2.5,5.6-1.8,8.8c6.8,1.5,12.7,2.4,14.3,3.1C563,1037.7,565.6,1037.9,565.6,1037.9z"/>
		<path fill="#F29E91" d="M522.4,982.3c0,0,11.8,22-3.4,44.5c0,0,36.6,2.8,41.1-2.8c4.5-5.6-10.7-29.3-6.2-45.6L522.4,982.3z"/>
		<path fill="#A66EFF" d="M571.9,960.9c1.7,0.6,13,6.2,20.8,3.4s19.1-1.1,19.1-1.1s1.7,12.4,0,13c-1.7,0.6-16.3,3.4-27,1.7
			c-10.7-1.7-13-4.5-13-4.5V960.9z"/>
		<path fill="#3F322D" d="M510.2,1057.9c14.3-3,18.4-3.8,23.7-3.4s37.4-4.2,36.7-16.3c-2.7-3-8.7-21-10.5-28.8s0.3-19.2-6.3-17.7
			c0,0,1.3,3-1.8,4.1c-6.8,2.4-22.4,2.4-23.6,1.6c-1.2-0.8-1.2-0.8-1.2-0.8s1.6-6,0.4-7.6c-1.2-1.6-4-5.2-5.2-3.2
			c-1.2,2,2.4,14-3.2,26.4c-5.6,12.4-10,22-15.2,24.8c-5.2,2.8-22.6,6.3-22.3,15.7C481.6,1052.7,495.9,1060.9,510.2,1057.9z"/>
		<path fill="#A66EFF" d="M519.6,978.4c0,0,6.4,2.3,10.5,0c4.1-2.3,16.9-6.8,23.9-3.9c0,0,3.5,7.3,1.7,10.1
			c-1.7,2.8-30.9,7.9-33.8,5.6C519,987.9,519.6,978.4,519.6,978.4z"/>
		<path fill="#63473F" d="M486.5,1066.7l0.3-2.4l3.6,2.1v2.1c0,0,3.9,2.1,5.1,1.5l-0.6-2.7l3,0.9v2.1c0,0,2.7,1.8,3.9,1.2l-0.3-2.1
			l3,0.3l0.6,2.4l4.2-0.9l-0.3-2.1l2.1-0.3l0.3,2.1c0,0,6-0.3,7.2-2.4c0,0-0.9-2.1,0-2.7c0.9-0.6,3-0.3,3-0.3l1.2,2.4l4.2-1.5l1.2-3
			l11.7-1.5l0.3,3.3h6l-0.3-3.9l3.9-0.3v3.9l4.5-0.6v-3.3l2.1-0.3l0.9,2.7l4.5-1.5l-0.6-3l4.2-0.9l1.2,2.4c0,0,7.2-1.5,9.3-5.4
			c2.1-3.9-2.7-13.8-5.4-16.8c0.7,12.2-31.4,16.7-36.7,16.3s-9.4,0.4-23.7,3.4c-14.3,3-28.5-5.3-28.5-5.3c0.3,6.4,0.6,11.1,0.6,11.1
			S484.7,1066.1,486.5,1066.7z"/>
		<path fill="#0A192C" d="M525.2,383.1c0,0-19.1,6-23.7,14.5c0,0,1.6-9.1,4.1-11.6c0,0-10.1,7.5-13.9,19.1
			c-1.3,4-1.9-17.4,11.5-25.9C515.6,371.3,524.9,381.5,525.2,383.1z"/>
		<path fill="#D34722" d="M501.1,437.3c-0.7-0.4-1.5,0.3-1.3,1c0.7,2.9,2.8,8.1,6.2,8.5c6,0.7,9.9-10,9.9-10
			C515.6,436.8,507.9,441.1,501.1,437.3z"/>
		<path fill="#BC7A0F" d="M481.6,562.6c0,0-3.7-4.3,3.5-3.2c10.5,1.7,37.2,12,40.2,15.5c3,3.5-1.4,3.9-6.2,1.8
			C514.4,574.7,484.4,564.9,481.6,562.6z"/>
		<polygon fill="#D34722" points="518.4,580.8 523.5,587.6 537,592.6 542.1,599.9 517.9,589.2 512.8,580.2 		"/>
		<path fill="#4529B3" d="M618.7,676.5c0,0,1.7,21.4,3.4,25.3c1.3,3.1,6.7,5.8,9,6.8c-0.1-12.1-0.8-21-3.8-32.5L618.7,676.5z"/>
	</g>
	<g>
		<polygon fill="#A0E8E4" points="398.9,842.8 392.1,840.9 453.7,691.9 460.5,693.8 		"/>
		<polygon fill="#298784" points="398.9,842.8 396.4,842.7 458,693.7 460.5,693.8 		"/>
		<polygon fill="#A0E8E4" points="360.2,833.8 353.8,830.6 414.7,683.3 421.6,685 		"/>
		<polygon fill="#298784" points="360.2,833.8 357.9,832.3 418.8,685 421.7,685.1 		"/>
		<path fill="#298784" d="M505.8,836l-15.5-18.3c0,0-3.7-3.9-4.9-5.3l-23.8-24.5l4.3,16.9l0.1,0.1l-89.9,216.5l-1.7-2.6
			c-1.7,10.2-17.4,5.4-17.4,5.4l3.8,6.3l-3.2-5l-137-25.3l14.1,30.1l0,0l-14.2-30.2l0.1,0l-0.2-0.3l-19.2-10.4l13.4,31.5
			c0.8,2,2,3.7,3.6,5.1l-1.2-0.3l7.8,17c1.7,4.2,5.4,7.3,9.9,8.3l17.6,4.6l-11.1-21.1l0.1,0l11,21.1l143.3,26.7l0,0l0,0
			c11.6,1.2,16.1-9.8,16.1-9.8l-0.1-0.1l92.8-221.4l0.2,0.2l2.6-6.9C508.3,841.6,507.8,838.3,505.8,836z"/>
		<polygon fill="#51BBB9" points="324.1,761.8 214.1,999.3 229.8,1002.2 339.6,764.5 		"/>
		<polygon fill="#51BBB9" points="394.3,774.1 288.2,1013.1 306.3,1016.5 408.8,776.7 		"/>
		<polygon fill="#51BBB9" points="348.2,766 238.1,1003.7 256.2,1007.1 361.7,768.4 		"/>
		<path fill="#51BBB9" d="M313.2,759.9c-9.5-1.2-18.1,5.5-19.3,14.9L200,979.4c-0.9,6.9,1.4,13.5,6.4,17.1l109.1-236.2L313.2,759.9z
			"/>
		<polygon fill="#51BBB9" points="417.3,778.2 314.5,1018 330.6,1021 430.1,780.4 		"/>
		<path fill="#51BBB9" d="M459.2,786.5l-95.3,240.7c9.3,1,17.6-6.7,20.9-15.4l83-208.2C468.7,796.6,465.1,789.9,459.2,786.5z"/>
		<polygon fill="#51BBB9" points="438.7,781.9 338.8,1022.6 355.7,1025.8 451.1,784.1 		"/>
		<polygon fill="#51BBB9" points="370.3,769.9 264.4,1008.7 280,1011.6 385.7,772.6 		"/>
		<polygon fill="#14635F" points="430.1,780.4 330.6,1021 338.8,1022.6 438.7,781.9 		"/>
		<path fill="#14635F" d="M452.8,784.4l-1.8-0.3l-95.4,241.7l7.9,1.5c0.1,0,0.2,0,0.3,0l95.3-240.7
			C457.3,785.4,455.1,784.7,452.8,784.4z"/>
		<path fill="#14635F" d="M315.5,760.3L206.4,996.5c1.9,1.3,4.1,2.3,6.7,2.6l1,0.2l110-237.5L315.5,760.3z"/>
		<polygon fill="#14635F" points="408.8,776.7 306.3,1016.5 314.5,1018 417.3,778.2 		"/>
		<polygon fill="#14635F" points="339.6,764.5 229.8,1002.2 238.1,1003.7 348.2,766 		"/>
		<polygon fill="#14635F" points="361.7,768.4 256.2,1007.1 264.4,1008.7 370.3,769.9 		"/>
		<polygon fill="#14635F" points="385.7,772.6 280,1011.6 288.2,1013.1 394.3,774.1 		"/>
		<path fill="#14635F" d="M407.6,679.5L407.6,679.5c-0.1,0-0.2-0.1-0.2-0.1c-0.9-0.3-2.2,1.4-2.9,3.8c-0.6,2-0.6,3.8-0.1,4.5
			l-0.1,0.2l60.2,13.4l2.8-8.3L407.6,679.5z"/>
		<path fill="#FFD0C5" d="M553.1,511.2c0,0-28.5,59.9-31.7,64.9c-3.2,5-9.5,21.7-22.2,38.5c-11.7,15.5-31.6,45.2-34.3,50.3
			s-9.5,14.5-11.2,20.1c0,0-5.1,15.2-16.3,12.4c-10.3-2.6-15.2-3.8-16.3-6.8s-0.4-11.5,5.1-17.1c5.5-5.5,8-6.4,14.6-13.7
			c6.7-7.3,19.2-42.8,20.2-46s12.4-26.9,19.7-33.6c7-6.5,17-36.4,21-45.4c4-9,19.9-45.7,27.6-44.9
			C537,490.8,561.2,490.1,553.1,511.2z"/>
		<g>
			<polygon fill="#F29E91" points="507.7,593.7 504.4,599.4 489.7,605.6 			"/>
			<polygon fill="#F29E91" points="494.4,591.3 504.2,595.8 512.8,590.9 503.8,592.4 			"/>
		</g>
		
			<ellipse transform="matrix(0.3084 -0.9513 0.9513 0.3084 -340.8919 925.326)" fill="#094440" cx="465.9" cy="697.1" rx="4.4" ry="1.6"/>
		<path fill="#14635F" d="M412.5,688.6l-5.9,14.2c0,0,1.1,0.9,2.8,1.5c1.7,0.6,4,0.4,4,0.4l6.2-14.1L412.5,688.6z"/>
		<path fill="#14635F" d="M451.3,697.8l-5.9,14.2c0,0,1.1,0.9,2.8,1.5c1.7,0.6,4,0.4,4,0.4l6.2-14.1L451.3,697.8z"/>
		
			<ellipse transform="matrix(0.3752 -0.927 0.927 0.3752 -536.4432 983.2557)" fill="#14635F" cx="461.1" cy="889.5" rx="8" ry="4.6"/>
		
			<ellipse transform="matrix(0.3752 -0.927 0.927 0.3752 -607.5906 997.8755)" fill="#14635F" cx="436.4" cy="949.6" rx="7.7" ry="4.4"/>
		<g>
			<path fill="#14635F" d="M377.9,1058.8c-0.9,0-1.8-0.1-2.7-0.2c-14.3-1.7-151.4-29.9-157.3-31.1l-2.3-4.7
				c1.4,0.3,145.9,30.1,160,31.8c12.4,1.5,19.2-9.5,19.9-10.7L489,816.2l2.6,2.8l-92.4,226.7l-0.1,0.1
				C398.8,1046.3,391.6,1058.8,377.9,1058.8z"/>
		</g>
		<g>
			<path fill="#63473F" d="M373.6,1068.5l0,0.2c0,0,0,0-0.1,0c-0.1,0-0.2,0-0.3,0c-0.2-0.1-0.4-0.2-0.6-0.3
				c-2.9-0.6-6.5,4.9-8.2,12.5c-1.7,7.5-0.7,14.1,2.2,14.7c0.2,0,0.4,0,0.7,0c0,0,0.1,0.1,0.1,0.1c0.2,0.1,0.3,0.2,0.9,0.3l7.1,1.6
				l6.2-27.3L373.6,1068.5z"/>
			
				<ellipse transform="matrix(0.2159 -0.9764 0.9764 0.2159 -761.5342 1220.0836)" fill="#3F322D" cx="378.9" cy="1084.2" rx="14.1" ry="5.3"/>
		</g>
		<g>
			<path fill="#63473F" d="M356.4,1027.1l0,0.2c0,0,0,0-0.1,0c-0.1,0-0.2,0-0.3,0c-0.2-0.1-0.4-0.2-0.7-0.3
				c-2.9-0.7-6.7,5.1-8.4,12.8c-1.7,7.7-0.7,14.5,2.2,15.2c0.2,0,0.4,0.1,0.7,0c0,0,0.1,0.1,0.1,0.1c0.3,0.1,0.3,0.2,0.9,0.3
				l7.3,1.7l6.3-28.1L356.4,1027.1z"/>
			
				<ellipse transform="matrix(0.2159 -0.9764 0.9764 0.2159 -734.926 1171.314)" fill="#3F322D" cx="361.9" cy="1043.3" rx="14.5" ry="5.5"/>
		</g>
		<g>
			<path fill="#63473F" d="M219.9,1001.1l0,0.2c0,0,0,0-0.1,0c-0.1,0-0.2,0-0.3,0c-0.2-0.1-0.4-0.2-0.7-0.3
				c-2.9-0.6-6.7,5.1-8.4,12.8c-1.7,7.7-0.7,14.5,2.2,15.2c0.2,0,0.4,0.1,0.7,0c0,0,0.1,0.1,0.1,0.1c0.3,0.1,0.3,0.2,0.9,0.3
				l7.3,1.7l6.3-28.1L219.9,1001.1z"/>
			
				<ellipse transform="matrix(0.2159 -0.9764 0.9764 0.2159 -816.6068 1017.61)" fill="#3F322D" cx="225.3" cy="1017.3" rx="14.5" ry="5.5"/>
		</g>
		<g>
			<path fill="#63473F" d="M241.9,1046.6l0,0.2c0,0,0,0-0.1,0c-0.1,0-0.2,0-0.3,0c-0.2-0.1-0.4-0.2-0.6-0.3
				c-2.9-0.6-6.5,4.9-8.2,12.5c-1.7,7.5-0.7,14.1,2.2,14.8c0.2,0,0.4,0,0.7,0c0,0,0.1,0.1,0.1,0.1c0.2,0.1,0.3,0.2,0.9,0.3l7.1,1.6
				l6.2-27.3L241.9,1046.6z"/>
			
				<ellipse transform="matrix(0.2159 -0.9764 0.9764 0.2159 -843.3931 1074.1934)" fill="#3F322D" cx="247.1" cy="1062.2" rx="14.1" ry="5.3"/>
		</g>
		<path fill="#51BBB9" d="M464.7,888.8c0,0-4.8,35.1-25.6,62.8l-4.5-2c0,0,22-33.2,25.1-62.8L464.7,888.8z"/>
		<path fill="#FFB32C" d="M520.7,488.9l-22.5,36.2c-0.2,0.2-0.3,0.5-0.4,0.7l-17.2,33.7c0,0,33.1,3.3,46.1,16.4
			c3.5,3.5,29.4-73.2,29.4-73.2S548.7,481.5,520.7,488.9z"/>
	</g>
	<g>
		<g>
			<path fill="#6D73B7" d="M306.5,416.5l-18.9,4.2c0,0-3.7,9.4,3.2,12.4l17.3-3.4L306.5,416.5z"/>
			
				<ellipse transform="matrix(0.9971 -7.581918e-02 7.581918e-02 0.9971 -31.205 24.5036)" fill="#3E3493" cx="307.1" cy="423.2" rx="4" ry="6.6"/>
		</g>
		<path fill="#FFF9EE" d="M356.5,403.3c0.8-1,0.7-2.4-0.3-3.3c-3.9-3.4-15.1-11.5-30.9-9.1c-19.9,3-170.5,38.8-170.5,38.8
			s-13.7,5-11.6,7c2.1,2,55,5.4,72.9,3.1s115.7-26.3,119.8-27.1C339.7,412,351.8,409,356.5,403.3z"/>
		<polygon fill="#CE4428" points="260,421.6 202.1,418.6 239.1,429.4 		"/>
		<path fill="#CE4428" d="M204.1,418.6c0,0-17,16-28.6,14.8l-17.1-41.7l9.6-2.9C168,388.9,186.1,409.9,204.1,418.6z"/>
		<path fill="#F2B34E" d="M189.2,429.8c0,0-14.7,6.7-22.6,5.1c-5.6-1.1-28.2-5.8-28.2-5.8l7.5-3.5L189.2,429.8z"/>
		<path fill="#3E3493" d="M335,393.4l4.9,4.1l8.2-1.5C348.1,396,343.9,392.6,335,393.4z"/>
		<g>
			<path fill="#6D73B7" d="M258.8,421.2l-18.9,4.2c0,0-3.7,9.4,3.2,12.4l17.3-3.4L258.8,421.2z"/>
			
				<ellipse transform="matrix(0.9971 -7.581918e-02 7.581918e-02 0.9971 -31.6987 20.8958)" fill="#3E3493" cx="259.4" cy="427.9" rx="4" ry="6.6"/>
		</g>
	</g>
	<polygon fill="#FFF9EE" points="76.7,963.6 70.7,970.7 86.4,972.2 	"/>
	<linearGradient id="SVGID_21_" gradientUnits="userSpaceOnUse" x1="95.6425" y1="691.9446" x2="334.6544" y2="691.9446">
		<stop  offset="0" style="stop-color:#FFFFFF;stop-opacity:0"/>
		<stop  offset="0.9709" style="stop-color:#FFE7B7"/>
	</linearGradient>
	<polygon fill="url(#SVGID_21_)" points="95.6,920.2 141.3,905 334.7,468.2 294.1,463.7 	"/>
</g>
<g id="爱美">
</g>
<g id="求职">
</g>
<g id="展示图">
</g>
<g id="图层_16">
	<g id="蛋糕">
		<g id="图层_2">
		</g>
	</g>
</g>
</svg>
